<svg xmlns="http://www.w3.org/2000/svg" xmlns:inkscape="http://www.inkscape.org/namespaces/inkscape" viewBox="-48.50 -53.00 97.00 97.00" width="388" height="388" role="img" aria-label="Zeit" xmlns:c2pa="http://c2pa.org/manifest"><metadata><c2pa:manifest>AAAWgmp1bWIAAAAeanVtZGMycGEAEQAQgAAAqgA4m3EDYzJwYQAAABZcanVtYgAAAEdqdW1kYzJtYQARABCAAACqADibcQN1cm46YzJwYTo1NTNlYzIyZS01ZTVjLTRkZTAtYjM4Ny1iMGYxNDRhMWFkOGMAAAADl2p1bWIAAAApanVtZGMyYXMAEQAQgAAAqgA4m3EDYzJwYS5hc3NlcnRpb25zAAAAALxqdW1iAAAARGp1bWRjYm9yABEAEIAAAKoAOJtxE2MycGEuaW5ncmVkaWVudC52MwAAAAAYYzJzaEBcRSZ6ikO97B0Gdi7BtncAAABwY2JvcqNpZGM6Zm9ybWF0bWltYWdlL3N2Zyt4bWxqaW5zdGFuY2VJRHgseG1wOmlpZDo0ZDY2N2E3MC02OTg3LTQ3MWUtYThhNC0yNWM5YjZiNWQyYzdscmVsYXRpb25zaGlwaHBhcmVudE9mAAAB4mp1bWIAAABBanVtZGNib3IAEQAQgAAAqgA4m3ETYzJwYS5hY3Rpb25zLnYyAAAAABhjMnNoYU2h8Wp7uIf7ayX4J/pEPwAAAZljYm9yomdhY3Rpb25zgqJmYWN0aW9ua2MycGEub3BlbmVkanBhcmFtZXRlcnOha2luZ3JlZGllbnRzgaJjdXJseC1zZWxmI2p1bWJmPWMycGEuYXNzZXJ0aW9ucy9jMnBhLmluZ3JlZGllbnQudjNkaGFzaFggOYnI2rFR9cxx6YRq9Ye/urdLlx0yoEJdmGNTYDfiLhekZmFjdGlvbngdY29tLmFudGhyb3BpYy5jbGF1ZGUucHJvdmlkZWRqcGFyYW1ldGVyc6F4H2NvbS5hbnRocm9waWMub3JpZ2luLWNvbmZpZGVuY2VndW5rbm93bmtkZXNjcmlwdGlvbnhmQ2xhdWRlIHByb3ZpZGVkIHRoaXMgZmlsZSBhdCB0aGUgcmVxdWVzdCBvZiBhIHVzZXIgYW5kIG1heSBoYXZlIGNyZWF0ZWQgb3IgbW9kaWZpZWQgdGhlIGZpbGUgY29udGVudHMubXNvZnR3YXJlQWdlbnShZG5hbWVmQ2xhdWRlcmFsbEFjdGlvbnNJbmNsdWRlZPUAAADIanVtYgAAAEBqdW1kY2JvcgARABCAAACqADibcRNjMnBhLmhhc2guZGF0YQAAAAAYYzJzaEgHyq/kBrRy2m8buv2UyiIAAACAY2JvcqVjYWxnZnNoYTI1NmNwYWRNAAAAAAAAAAAAAAAAAGRoYXNoWCBSrACu0Wvxch10senozVCC3qzclAjmFDoXtJy53aD2b2RuYW1lbmp1bWJmIG1hbmlmZXN0amV4Y2x1c2lvbnOBomVzdGFydBj+Zmxlbmd0aBkeBAAAAj5qdW1iAAAAJ2p1bWRjMmNsABEAEIAAAKoAOJtxA2MycGEuY2xhaW0udjIAAAACD2Nib3KlY2FsZ2ZzaGEyNTZpc2lnbmF0dXJleE1zZWxmI2p1bWJmPS9jMnBhL3VybjpjMnBhOjU1M2VjMjJlLTVlNWMtNGRlMC1iMzg3LWIwZjE0NGExYWQ4Yy9jMnBhLnNpZ25hdHVyZWppbnN0YW5jZUlEeCx4bXA6aWlkOjM0MmQzMmFkLTEwNTYtNDFmMC05ZjBjLTdjZjNiNzgyNjhkNHJjcmVhdGVkX2Fzc2VydGlvbnODomN1cmx4LXNlbGYjanVtYmY9YzJwYS5hc3NlcnRpb25zL2MycGEuaW5ncmVkaWVudC52M2RoYXNoWCA5icjasVH1zHHphGr1h7+6t0uXHTKgQl2YY1NgN+IuF6JjdXJseCpzZWxmI2p1bWJmPWMycGEuYXNzZXJ0aW9ucy9jMnBhLmFjdGlvbnMudjJkaGFzaFggGoGEhGdHJklGNE8Gpt7iuvaWPVDeODjFQ+ObjIb3W+KiY3VybHgpc2VsZiNqdW1iZj1jMnBhLmFzc2VydGlvbnMvYzJwYS5oYXNoLmRhdGFkaGFzaFggmNWlgdd3JgTEetCeQHlzH7/+xOM0zlmivhCg80CQbtN0Y2xhaW1fZ2VuZXJhdG9yX2luZm+jZG5hbWVvQW50aHJvcGljIEZpbGVzZ3ZlcnNpb25lMS4wLjBrc3BlY1ZlcnNpb25lMi40LjAAABA4anVtYgAAAChqdW1kYzJjcwARABCAAACqADibcQNjMnBhLnNpZ25hdHVyZQAAABAIY2JvctKEWQISogEmGCFZAgowggIGMIIBjaADAgECAhRA5aAK7sI50L64g/oGQgU9Z1UTADAKBggqhkjOPQQDAzBJMRcwFQYDVQQKEw5BbnRocm9waWMsIFBCQzEuMCwGA1UEAxMlQW50aHJvcGljIENvbnRlbnQgQ3JlZGVudGlhbHMgUm9vdCBDQTAeFw0yNjA4MDcxODQzNTZaFw0yODA4MDYxOTQzNTZaMEQxFzAVBgNVBAoTDkFudGhyb3BpYywgUEJDMSkwJwYDVQQDEyBBbnRocm9waWMgQ2xhdWRlIENvbnRlbnQgU2lnbmluZzBZMBMGByqGSM49AgEGCCqGSM49AwEHA0IABJh6CmvLUBgFFNU0vUKlOVtE6djd17L5SuwX0LemFisBM3dkd/3cyjxFA3Qo5S46fX0/ihY0VZ7mfb9KF703t5OjWDBWMA4GA1UdDwEB/wQEAwIHgDAVBgNVHSUEDjAMBgorBgEEAYPoXgIBMAwGA1UdEwEB/wQCMAAwHwYDVR0jBBgwFoAUzlHiBIFOZFsj+OPEz5o+nMHXXMIwCgYIKoZIzj0EAwMDZwAwZAIwMXMdFJ4BetLLVY7ORuE9noqbbAZOZn/aArXyTwFAZfKrPzxF2vPoJNf1+UCdg1XGAjBwX1zd9WGqYkqmL5SFqw1QySjr1zJfpJM9+1rdDwSPLMOPOjKuiXjoU/pUUeG9RwmhY3BhZFkNngAAAAAAAAAAAAAAAAAAAAAAAAAAAAAAAAAAAAAAAAAAAAAAAAAAAAAAAAAAAAAAAAAAAAAAAAAAAAAAAAAAAAAAAAAAAAAAAAAAAAAAAAAAAAAAAAAAAAAAAAAAAAAAAAAAAAAAAAAAAAAAAAAAAAAAAAAAAAAAAAAAAAAAAAAAAAAAAAAAAAAAAAAAAAAAAAAAAAAAAAAAAAAAAAAAAAAAAAAAAAAAAAAAAAAAAAAAAAAAAAAAAAAAAAAAAAAAAAAAAAAAAAAAAAAAAAAAAAAAAAAAAAAAAAAAAAAAAAAAAAAAAAAAAAAAAAAAAAAAAAAAAAAAAAAAAAAAAAAAAAAAAAAAAAAAAAAAAAAAAAAAAAAAAAAAAAAAAAAAAAAAAAAAAAAAAAAAAAAAAAAAAAAAAAAAAAAAAAAAAAAAAAAAAAAAAAAAAAAAAAAAAAAAAAAAAAAAAAAAAAAAAAAAAAAAAAAAAAAAAAAAAAAAAAAAAAAAAAAAAAAAAAAAAAAAAAAAAAAAAAAAAAAAAAAAAAAAAAAAAAAAAAAAAAAAAAAAAAAAAAAAAAAAAAAAAAAAAAAAAAAAAAAAAAAAAAAAAAAAAAAAAAAAAAAAAAAAAAAAAAAAAAAAAAAAAAAAAAAAAAAAAAAAAAAAAAAAAAAAAAAAAAAAAAAAAAAAAAAAAAAAAAAAAAAAAAAAAAAAAAAAAAAAAAAAAAAAAAAAAAAAAAAAAAAAAAAAAAAAAAAAAAAAAAAAAAAAAAAAAAAAAAAAAAAAAAAAAAAAAAAAAAAAAAAAAAAAAAAAAAAAAAAAAAAAAAAAAAAAAAAAAAAAAAAAAAAAAAAAAAAAAAAAAAAAAAAAAAAAAAAAAAAAAAAAAAAAAAAAAAAAAAAAAAAAAAAAAAAAAAAAAAAAAAAAAAAAAAAAAAAAAAAAAAAAAAAAAAAAAAAAAAAAAAAAAAAAAAAAAAAAAAAAAAAAAAAAAAAAAAAAAAAAAAAAAAAAAAAAAAAAAAAAAAAAAAAAAAAAAAAAAAAAAAAAAAAAAAAAAAAAAAAAAAAAAAAAAAAAAAAAAAAAAAAAAAAAAAAAAAAAAAAAAAAAAAAAAAAAAAAAAAAAAAAAAAAAAAAAAAAAAAAAAAAAAAAAAAAAAAAAAAAAAAAAAAAAAAAAAAAAAAAAAAAAAAAAAAAAAAAAAAAAAAAAAAAAAAAAAAAAAAAAAAAAAAAAAAAAAAAAAAAAAAAAAAAAAAAAAAAAAAAAAAAAAAAAAAAAAAAAAAAAAAAAAAAAAAAAAAAAAAAAAAAAAAAAAAAAAAAAAAAAAAAAAAAAAAAAAAAAAAAAAAAAAAAAAAAAAAAAAAAAAAAAAAAAAAAAAAAAAAAAAAAAAAAAAAAAAAAAAAAAAAAAAAAAAAAAAAAAAAAAAAAAAAAAAAAAAAAAAAAAAAAAAAAAAAAAAAAAAAAAAAAAAAAAAAAAAAAAAAAAAAAAAAAAAAAAAAAAAAAAAAAAAAAAAAAAAAAAAAAAAAAAAAAAAAAAAAAAAAAAAAAAAAAAAAAAAAAAAAAAAAAAAAAAAAAAAAAAAAAAAAAAAAAAAAAAAAAAAAAAAAAAAAAAAAAAAAAAAAAAAAAAAAAAAAAAAAAAAAAAAAAAAAAAAAAAAAAAAAAAAAAAAAAAAAAAAAAAAAAAAAAAAAAAAAAAAAAAAAAAAAAAAAAAAAAAAAAAAAAAAAAAAAAAAAAAAAAAAAAAAAAAAAAAAAAAAAAAAAAAAAAAAAAAAAAAAAAAAAAAAAAAAAAAAAAAAAAAAAAAAAAAAAAAAAAAAAAAAAAAAAAAAAAAAAAAAAAAAAAAAAAAAAAAAAAAAAAAAAAAAAAAAAAAAAAAAAAAAAAAAAAAAAAAAAAAAAAAAAAAAAAAAAAAAAAAAAAAAAAAAAAAAAAAAAAAAAAAAAAAAAAAAAAAAAAAAAAAAAAAAAAAAAAAAAAAAAAAAAAAAAAAAAAAAAAAAAAAAAAAAAAAAAAAAAAAAAAAAAAAAAAAAAAAAAAAAAAAAAAAAAAAAAAAAAAAAAAAAAAAAAAAAAAAAAAAAAAAAAAAAAAAAAAAAAAAAAAAAAAAAAAAAAAAAAAAAAAAAAAAAAAAAAAAAAAAAAAAAAAAAAAAAAAAAAAAAAAAAAAAAAAAAAAAAAAAAAAAAAAAAAAAAAAAAAAAAAAAAAAAAAAAAAAAAAAAAAAAAAAAAAAAAAAAAAAAAAAAAAAAAAAAAAAAAAAAAAAAAAAAAAAAAAAAAAAAAAAAAAAAAAAAAAAAAAAAAAAAAAAAAAAAAAAAAAAAAAAAAAAAAAAAAAAAAAAAAAAAAAAAAAAAAAAAAAAAAAAAAAAAAAAAAAAAAAAAAAAAAAAAAAAAAAAAAAAAAAAAAAAAAAAAAAAAAAAAAAAAAAAAAAAAAAAAAAAAAAAAAAAAAAAAAAAAAAAAAAAAAAAAAAAAAAAAAAAAAAAAAAAAAAAAAAAAAAAAAAAAAAAAAAAAAAAAAAAAAAAAAAAAAAAAAAAAAAAAAAAAAAAAAAAAAAAAAAAAAAAAAAAAAAAAAAAAAAAAAAAAAAAAAAAAAAAAAAAAAAAAAAAAAAAAAAAAAAAAAAAAAAAAAAAAAAAAAAAAAAAAAAAAAAAAAAAAAAAAAAAAAAAAAAAAAAAAAAAAAAAAAAAAAAAAAAAAAAAAAAAAAAAAAAAAAAAAAAAAAAAAAAAAAAAAAAAAAAAAAAAAAAAAAAAAAAAAAAAAAAAAAAAAAAAAAAAAAAAAAAAAAAAAAAAAAAAAAAAAAAAAAAAAAAAAAAAAAAAAAAAAAAAAAAAAAAAAAAAAAAAAAAAAAAAAAAAAAAAAAAAAAAAAAAAAAAAAAAAAAAAAAAAAAAAAAAAAAAAAAAAAAAAAAAAAAAAAAAAAAAAAAAAAAAAAAAAAAAAAAAAAAAAAAAAAAAAAAAAAAAAAAAAAAAAAAAAAAAAAAAAAAAAAAAAAAAAAAAAAAAAAAAAAAAAAAAAAAAAAAAAAAAAAAAAAAAAAAAAAAAAAAAAAAAAAAAAAAAAAAAAAAAAAAAAAAAAAAAAAAAAAAAAAAAAAAAAAAAAAAAAAAAAAAAAAAAAAAAAAAAAAAAAAAAAAAAAAAAAAAAAAAAAAAAAAAAAAAAAAAAAAAAAAAAAAAAAAAAAAAAAAAAAAAAAAAAAAAAAAAAAAAAAAAAAAAAAAAAAAAAAAAAAAAAAAAAAAAAAAAAAAAAAAAAAAAAAAAAAAAAAAAAAAAAAAAAAAAAAAAAAAAAAAAAAAAAAAAAAAAAAAAAAAAAAAAAAAAAAAAAAAAAAAAAAAAAAAAAAAAAAAAAAAAAAAAAAAAAAAAAAAAAAAAAAAAAAAAAAAAAAAAAAAAAAAAAAAAAAAAAAAAAAAAAAAAAAAAAAAAAAAAAAAAAAAAAAAAAAAAAAAAAAAAAAAAAAAAAAAAAAAAAAAAAAAAAAAAAAAAAAAAAAAAAAAAAAAAAAAAAAAAAAAAAAAAAAAAAAAAAAAAAAAAAAAAAAAAAAAAAAAAAAAAAAAAAAAAAAAAAAAAAAAAAAAAAAAAAAAAAAAAAAAAAAAAAAAAAAAAAAAAAAAAAAAAAAAAAAAAAAAAAAAAAAAAAAAAAAAAAAAAAAAAAAAAAAAAAAAAAAAAAAAAAAAAAAAAAAAAAAAAAAAAAAAAAAAAAAAAAAAAAAAAAAAAAAAAAAAAAAAAAAAAAAAAAAAAAAAAAAAAAAAAAAAAAAAAAAAAAAAAAAAAAAAAAAAAAAAAAAAAAAAAAAAAAAAAAAAAAAAAAAAAAAAAAAAAAAAAAAAAAAAAAAAAAAAAAAAAAAAAAAAAAAAAAAAAAAAAAAAAAAAAAAAAAAAAAAAAAAAAAAAAAAAAAAAAAAAAAAAAAAAAAAAAAAAAAAAAAAAAAAAAAAAAAAAAAAAAAAAAAAAAAAAAAAAAAAAAAAAAAAAAAAAAAAAAAAAAAAAAAAAAAAAAAAAAAAAAAAAAAAAAAAAAAAAAAAAAAAAAAAAAAAAAAAAAAAAAAAAAAAAAAAAAAAAAAAAAAAAAAAAAAAAAAAAAAAAAAAAAAAAAAAAAAAAAAAAAAAAAAAAAAAAAAAAAAAAAAAAAAAAAAAAAAAAAAAAAAAAAAAAAAAAAAAAAAAAAAAAAAAAAAAAAAAAAAAAAAAAAAAAAAAAAAAAAAAAAAAAAAAAAAAAAAAAAAAAAAAAAAAAAAAAAAAAAAAAAAAAAAAAAAAAAAAAAAAAAAAAAAAAAAAAAAAAAAAAAAAAAAAAAAAAAAAAAAAAAAAAAAAAAAAAAAAAAAAAAAAAAAAAAAAAAAAAAAAAAAAAAAAAAAAAAAAAAAAAAAAAAAAAAAAAAAAAAAAAAAAAAAAAAAAAAAAAAAAAAAAAAAAAAAAAAAAAAAAAAAAAAAAAAAAAAAAAAAAAAAAAAAAAAAAAAAAAAAAAAAAAAAAAAAAAAAAAAAAAAAAAAAAAAAAAAAAAAAAAAAAAAAAAAAAAAAAAAAAAAAAAAAAAAAAAAAAAAAAAAAAAAAAAAAAAAAAAAAAAAAAAAAAAAAAAAAAAAAAAAAAAAAAAAAAAAAAAAAAAAAAAAAAAAAAAAAAAAAAAAAAAAAAAAAAAAAAAAAAAAAAAAAAAAAAAAAAAAAAAAAAAAAAAAPZYQGk2rBDCt8d8nBTuT851eKk/Fq6E84KwB4yPWECstEk/0PAnOHQ1XUJbUQDpgMBwD5doAkjXF1qgYhyy8W7l2Kc=</c2pa:manifest></metadata><title>Zeit</title><g id="mark" stroke="#0E151E" stroke-width="1.3" stroke-linejoin="round"><g id="t4" inkscape:groupmode="layer" inkscape:label="time slice 4"><g class="top"><polygon points="0.00,-10.00 8.66,-5.00 0.00,0.00 -8.66,-5.00" fill="#E0303A"/><polygon points="8.66,-5.00 17.32,0.00 8.66,5.00 0.00,0.00" fill="#E0303A"/><polygon points="17.32,0.00 25.98,5.00 17.32,10.00 8.66,5.00" fill="#E0303A"/><polygon points="25.98,5.00 34.64,10.00 25.98,15.00 17.32,10.00" fill="#E0303A"/><polygon points="-8.66,-5.00 0.00,0.00 -8.66,5.00 -17.32,0.00" fill="#E0303A"/><polygon points="0.00,0.00 8.66,5.00 0.00,10.00 -8.66,5.00" fill="#E0303A"/><polygon points="8.66,5.00 17.32,10.00 8.66,15.00 0.00,10.00" fill="#E0303A"/><polygon points="17.32,10.00 25.98,15.00 17.32,20.00 8.66,15.00" fill="#E0303A"/><polygon points="-17.32,0.00 -8.66,5.00 -17.32,10.00 -25.98,5.00" fill="#E0303A"/><polygon points="-8.66,5.00 0.00,10.00 -8.66,15.00 -17.32,10.00" fill="#E0303A"/><polygon points="0.00,10.00 8.66,15.00 0.00,20.00 -8.66,15.00" fill="#E0303A"/><polygon points="8.66,15.00 17.32,20.00 8.66,25.00 0.00,20.00" fill="#E0303A"/><polygon points="-25.98,5.00 -17.32,10.00 -25.98,15.00 -34.64,10.00" fill="#E0303A"/><polygon points="-17.32,10.00 -8.66,15.00 -17.32,20.00 -25.98,15.00" fill="#E0303A"/><polygon points="-8.66,15.00 0.00,20.00 -8.66,25.00 -17.32,20.00" fill="#E0303A"/><polygon points="0.00,20.00 8.66,25.00 0.00,30.00 -8.66,25.00" fill="#E0303A"/></g><g class="right"><polygon points="34.64,10.00 25.98,15.00 25.98,25.00 34.64,20.00" fill="#A12832"/><polygon points="25.98,15.00 17.32,20.00 17.32,30.00 25.98,25.00" fill="#A12832"/><polygon points="17.32,20.00 8.66,25.00 8.66,35.00 17.32,30.00" fill="#A12832"/><polygon points="8.66,25.00 0.00,30.00 0.00,40.00 8.66,35.00" fill="#A12832"/></g><g class="front"><polygon class="z" points="-34.64,10.00 -25.98,15.00 -25.98,25.00 -34.64,20.00" fill="#E6E9EE"/><polygon class="z" points="-25.98,15.00 -17.32,20.00 -17.32,30.00 -25.98,25.00" fill="#E6E9EE"/><polygon class="z" points="-17.32,20.00 -8.66,25.00 -8.66,35.00 -17.32,30.00" fill="#E6E9EE"/><polygon class="z" points="-8.66,25.00 0.00,30.00 0.00,40.00 -8.66,35.00" fill="#E6E9EE"/></g></g><g id="t3" inkscape:groupmode="layer" inkscape:label="time slice 3"><g class="top"><polygon points="0.00,-23.00 8.66,-18.00 0.00,-13.00 -8.66,-18.00" fill="#E9C200"/><polygon points="8.66,-18.00 17.32,-13.00 8.66,-8.00 0.00,-13.00" fill="#E9C200"/><polygon points="17.32,-13.00 25.98,-8.00 17.32,-3.00 8.66,-8.00" fill="#E9C200"/><polygon points="25.98,-8.00 34.64,-3.00 25.98,2.00 17.32,-3.00" fill="#E9C200"/><polygon points="-8.66,-18.00 0.00,-13.00 -8.66,-8.00 -17.32,-13.00" fill="#E9C200"/><polygon points="0.00,-13.00 8.66,-8.00 0.00,-3.00 -8.66,-8.00" fill="#E9C200"/><polygon points="8.66,-8.00 17.32,-3.00 8.66,2.00 0.00,-3.00" fill="#E9C200"/><polygon points="17.32,-3.00 25.98,2.00 17.32,7.00 8.66,2.00" fill="#E9C200"/><polygon points="-17.32,-13.00 -8.66,-8.00 -17.32,-3.00 -25.98,-8.00" fill="#E9C200"/><polygon points="-8.66,-8.00 0.00,-3.00 -8.66,2.00 -17.32,-3.00" fill="#E9C200"/><polygon points="0.00,-3.00 8.66,2.00 0.00,7.00 -8.66,2.00" fill="#E9C200"/><polygon points="8.66,2.00 17.32,7.00 8.66,12.00 0.00,7.00" fill="#E9C200"/><polygon points="-25.98,-8.00 -17.32,-3.00 -25.98,2.00 -34.64,-3.00" fill="#E9C200"/><polygon points="-17.32,-3.00 -8.66,2.00 -17.32,7.00 -25.98,2.00" fill="#E9C200"/><polygon points="-8.66,2.00 0.00,7.00 -8.66,12.00 -17.32,7.00" fill="#E9C200"/><polygon points="0.00,7.00 8.66,12.00 0.00,17.00 -8.66,12.00" fill="#E9C200"/></g><g class="right"><polygon points="34.64,-3.00 25.98,2.00 25.98,12.00 34.64,7.00" fill="#A78E09"/><polygon points="25.98,2.00 17.32,7.00 17.32,17.00 25.98,12.00" fill="#A78E09"/><polygon points="17.32,7.00 8.66,12.00 8.66,22.00 17.32,17.00" fill="#A78E09"/><polygon points="8.66,12.00 0.00,17.00 0.00,27.00 8.66,22.00" fill="#A78E09"/></g><g class="front"><polygon points="-34.64,-3.00 -25.98,2.00 -25.98,12.00 -34.64,7.00" fill="#CFAD04"/><polygon class="z" points="-25.98,2.00 -17.32,7.00 -17.32,17.00 -25.98,12.00" fill="#E6E9EE"/><polygon points="-17.32,7.00 -8.66,12.00 -8.66,22.00 -17.32,17.00" fill="#CFAD04"/><polygon points="-8.66,12.00 0.00,17.00 0.00,27.00 -8.66,22.00" fill="#CFAD04"/></g></g><g id="t2" inkscape:groupmode="layer" inkscape:label="time slice 2"><g class="top"><polygon points="0.00,-36.00 8.66,-31.00 0.00,-26.00 -8.66,-31.00" fill="#00A9D6"/><polygon points="8.66,-31.00 17.32,-26.00 8.66,-21.00 0.00,-26.00" fill="#00A9D6"/><polygon points="17.32,-26.00 25.98,-21.00 17.32,-16.00 8.66,-21.00" fill="#00A9D6"/><polygon points="25.98,-21.00 34.64,-16.00 25.98,-11.00 17.32,-16.00" fill="#00A9D6"/><polygon points="-8.66,-31.00 0.00,-26.00 -8.66,-21.00 -17.32,-26.00" fill="#00A9D6"/><polygon points="0.00,-26.00 8.66,-21.00 0.00,-16.00 -8.66,-21.00" fill="#00A9D6"/><polygon points="8.66,-21.00 17.32,-16.00 8.66,-11.00 0.00,-16.00" fill="#00A9D6"/><polygon points="17.32,-16.00 25.98,-11.00 17.32,-6.00 8.66,-11.00" fill="#00A9D6"/><polygon points="-17.32,-26.00 -8.66,-21.00 -17.32,-16.00 -25.98,-21.00" fill="#00A9D6"/><polygon points="-8.66,-21.00 0.00,-16.00 -8.66,-11.00 -17.32,-16.00" fill="#00A9D6"/><polygon points="0.00,-16.00 8.66,-11.00 0.00,-6.00 -8.66,-11.00" fill="#00A9D6"/><polygon points="8.66,-11.00 17.32,-6.00 8.66,-1.00 0.00,-6.00" fill="#00A9D6"/><polygon points="-25.98,-21.00 -17.32,-16.00 -25.98,-11.00 -34.64,-16.00" fill="#00A9D6"/><polygon points="-17.32,-16.00 -8.66,-11.00 -17.32,-6.00 -25.98,-11.00" fill="#00A9D6"/><polygon points="-8.66,-11.00 0.00,-6.00 -8.66,-1.00 -17.32,-6.00" fill="#00A9D6"/><polygon points="0.00,-6.00 8.66,-1.00 0.00,4.00 -8.66,-1.00" fill="#00A9D6"/></g><g class="right"><polygon points="34.64,-16.00 25.98,-11.00 25.98,-1.00 34.64,-6.00" fill="#047D9F"/><polygon points="25.98,-11.00 17.32,-6.00 17.32,4.00 25.98,-1.00" fill="#047D9F"/><polygon points="17.32,-6.00 8.66,-1.00 8.66,9.00 17.32,4.00" fill="#047D9F"/><polygon points="8.66,-1.00 0.00,4.00 0.00,14.00 8.66,9.00" fill="#047D9F"/></g><g class="front"><polygon points="-34.64,-16.00 -25.98,-11.00 -25.98,-1.00 -34.64,-6.00" fill="#0297C0"/><polygon points="-25.98,-11.00 -17.32,-6.00 -17.32,4.00 -25.98,-1.00" fill="#0297C0"/><polygon class="z" points="-17.32,-6.00 -8.66,-1.00 -8.66,9.00 -17.32,4.00" fill="#E6E9EE"/><polygon points="-8.66,-1.00 0.00,4.00 0.00,14.00 -8.66,9.00" fill="#0297C0"/></g></g><g id="t1" inkscape:groupmode="layer" inkscape:label="time slice 1"><g class="top"><polygon points="0.00,-49.00 8.66,-44.00 0.00,-39.00 -8.66,-44.00" fill="#6D3FE0"/><polygon points="8.66,-44.00 17.32,-39.00 8.66,-34.00 0.00,-39.00" fill="#6D3FE0"/><polygon points="17.32,-39.00 25.98,-34.00 17.32,-29.00 8.66,-34.00" fill="#6D3FE0"/><polygon points="25.98,-34.00 34.64,-29.00 25.98,-24.00 17.32,-29.00" fill="#6D3FE0"/><polygon points="-8.66,-44.00 0.00,-39.00 -8.66,-34.00 -17.32,-39.00" fill="#6D3FE0"/><polygon points="0.00,-39.00 8.66,-34.00 0.00,-29.00 -8.66,-34.00" fill="#6D3FE0"/><polygon points="8.66,-34.00 17.32,-29.00 8.66,-24.00 0.00,-29.00" fill="#6D3FE0"/><polygon points="17.32,-29.00 25.98,-24.00 17.32,-19.00 8.66,-24.00" fill="#6D3FE0"/><polygon points="-17.32,-39.00 -8.66,-34.00 -17.32,-29.00 -25.98,-34.00" fill="#6D3FE0"/><polygon points="-8.66,-34.00 0.00,-29.00 -8.66,-24.00 -17.32,-29.00" fill="#6D3FE0"/><polygon points="0.00,-29.00 8.66,-24.00 0.00,-19.00 -8.66,-24.00" fill="#6D3FE0"/><polygon points="8.66,-24.00 17.32,-19.00 8.66,-14.00 0.00,-19.00" fill="#6D3FE0"/><polygon points="-25.98,-34.00 -17.32,-29.00 -25.98,-24.00 -34.64,-29.00" fill="#6D3FE0"/><polygon points="-17.32,-29.00 -8.66,-24.00 -17.32,-19.00 -25.98,-24.00" fill="#6D3FE0"/><polygon points="-8.66,-24.00 0.00,-19.00 -8.66,-14.00 -17.32,-19.00" fill="#6D3FE0"/><polygon points="0.00,-19.00 8.66,-14.00 0.00,-9.00 -8.66,-14.00" fill="#6D3FE0"/></g><g class="right"><polygon points="34.64,-29.00 25.98,-24.00 25.98,-14.00 34.64,-19.00" fill="#5032A6"/><polygon points="25.98,-24.00 17.32,-19.00 17.32,-9.00 25.98,-14.00" fill="#5032A6"/><polygon points="17.32,-19.00 8.66,-14.00 8.66,-4.00 17.32,-9.00" fill="#5032A6"/><polygon points="8.66,-14.00 0.00,-9.00 0.00,1.00 8.66,-4.00" fill="#5032A6"/></g><g class="front"><polygon class="z" points="-34.64,-29.00 -25.98,-24.00 -25.98,-14.00 -34.64,-19.00" fill="#E6E9EE"/><polygon class="z" points="-25.98,-24.00 -17.32,-19.00 -17.32,-9.00 -25.98,-14.00" fill="#E6E9EE"/><polygon class="z" points="-17.32,-19.00 -8.66,-14.00 -8.66,-4.00 -17.32,-9.00" fill="#E6E9EE"/><polygon class="z" points="-8.66,-14.00 0.00,-9.00 0.00,1.00 -8.66,-4.00" fill="#E6E9EE"/></g></g></g></svg>
