<svg xmlns="http://www.w3.org/2000/svg" viewBox="-58.75 -71.50 117.50 117.50" role="img" aria-label="Zeit" xmlns:c2pa="http://c2pa.org/manifest"><metadata><c2pa:manifest>AAAWgmp1bWIAAAAeanVtZGMycGEAEQAQgAAAqgA4m3EDYzJwYQAAABZcanVtYgAAAEdqdW1kYzJtYQARABCAAACqADibcQN1cm46YzJwYTozNTg4MjMwNC00NTg1LTQ3YTQtYmZiOC1mYjE2NmIyNjUwMzEAAAADl2p1bWIAAAApanVtZGMyYXMAEQAQgAAAqgA4m3EDYzJwYS5hc3NlcnRpb25zAAAAALxqdW1iAAAARGp1bWRjYm9yABEAEIAAAKoAOJtxE2MycGEuaW5ncmVkaWVudC52MwAAAAAYYzJzaCeWmJWFK7J9uGD2VEP5Tx8AAABwY2JvcqNpZGM6Zm9ybWF0bWltYWdlL3N2Zyt4bWxqaW5zdGFuY2VJRHgseG1wOmlpZDo5ZTBiZDcyNS00ODlkLTQ0OTctYTI0Yi0wMDUyNTk3MTliODRscmVsYXRpb25zaGlwaHBhcmVudE9mAAAB4mp1bWIAAABBanVtZGNib3IAEQAQgAAAqgA4m3ETYzJwYS5hY3Rpb25zLnYyAAAAABhjMnNoj0q4JEOCWAiPOnDdqCpNIgAAAZljYm9yomdhY3Rpb25zgqJmYWN0aW9ua2MycGEub3BlbmVkanBhcmFtZXRlcnOha2luZ3JlZGllbnRzgaJjdXJseC1zZWxmI2p1bWJmPWMycGEuYXNzZXJ0aW9ucy9jMnBhLmluZ3JlZGllbnQudjNkaGFzaFgg18KSXgGcaa4AQiSzl1bEGhempEREJolDEthsBdifEnakZmFjdGlvbngdY29tLmFudGhyb3BpYy5jbGF1ZGUucHJvdmlkZWRqcGFyYW1ldGVyc6F4H2NvbS5hbnRocm9waWMub3JpZ2luLWNvbmZpZGVuY2VndW5rbm93bmtkZXNjcmlwdGlvbnhmQ2xhdWRlIHByb3ZpZGVkIHRoaXMgZmlsZSBhdCB0aGUgcmVxdWVzdCBvZiBhIHVzZXIgYW5kIG1heSBoYXZlIGNyZWF0ZWQgb3IgbW9kaWZpZWQgdGhlIGZpbGUgY29udGVudHMubXNvZnR3YXJlQWdlbnShZG5hbWVmQ2xhdWRlcmFsbEFjdGlvbnNJbmNsdWRlZPUAAADIanVtYgAAAEBqdW1kY2JvcgARABCAAACqADibcRNjMnBhLmhhc2guZGF0YQAAAAAYYzJzaA09EvKGcf1eChiFZA8nybcAAACAY2JvcqVjYWxnZnNoYTI1NmNwYWRNAAAAAAAAAAAAAAAAAGRoYXNoWCB1zyP+QpU2PpeMOvmFgzTv7+RgPI2lYGe7Aix3He+QAWRuYW1lbmp1bWJmIG1hbmlmZXN0amV4Y2x1c2lvbnOBomVzdGFydBiqZmxlbmd0aBkeBAAAAj5qdW1iAAAAJ2p1bWRjMmNsABEAEIAAAKoAOJtxA2MycGEuY2xhaW0udjIAAAACD2Nib3KlY2FsZ2ZzaGEyNTZpc2lnbmF0dXJleE1zZWxmI2p1bWJmPS9jMnBhL3VybjpjMnBhOjM1ODgyMzA0LTQ1ODUtNDdhNC1iZmI4LWZiMTY2YjI2NTAzMS9jMnBhLnNpZ25hdHVyZWppbnN0YW5jZUlEeCx4bXA6aWlkOmI5YmM5ZTgzLWE5OTQtNGFkNi1hOGZmLTJlYTBkMWVmODdlY3JjcmVhdGVkX2Fzc2VydGlvbnODomN1cmx4LXNlbGYjanVtYmY9YzJwYS5hc3NlcnRpb25zL2MycGEuaW5ncmVkaWVudC52M2RoYXNoWCDXwpJeAZxprgBCJLOXVsQaF6akREQmiUMS2GwF2J8SdqJjdXJseCpzZWxmI2p1bWJmPWMycGEuYXNzZXJ0aW9ucy9jMnBhLmFjdGlvbnMudjJkaGFzaFggK/VZuWvRvC8IDRrp64Sqdtqyz91pqSEfeSuPL/TTxe+iY3VybHgpc2VsZiNqdW1iZj1jMnBhLmFzc2VydGlvbnMvYzJwYS5oYXNoLmRhdGFkaGFzaFggr/JFFppZpxPE61DKxnwzT77VI7Fy7eaCPT8YJxPZ1kJ0Y2xhaW1fZ2VuZXJhdG9yX2luZm+jZG5hbWVvQW50aHJvcGljIEZpbGVzZ3ZlcnNpb25lMS4wLjBrc3BlY1ZlcnNpb25lMi40LjAAABA4anVtYgAAAChqdW1kYzJjcwARABCAAACqADibcQNjMnBhLnNpZ25hdHVyZQAAABAIY2JvctKEWQISogEmGCFZAgowggIGMIIBjaADAgECAhRA5aAK7sI50L64g/oGQgU9Z1UTADAKBggqhkjOPQQDAzBJMRcwFQYDVQQKEw5BbnRocm9waWMsIFBCQzEuMCwGA1UEAxMlQW50aHJvcGljIENvbnRlbnQgQ3JlZGVudGlhbHMgUm9vdCBDQTAeFw0yNjA4MDcxODQzNTZaFw0yODA4MDYxOTQzNTZaMEQxFzAVBgNVBAoTDkFudGhyb3BpYywgUEJDMSkwJwYDVQQDEyBBbnRocm9waWMgQ2xhdWRlIENvbnRlbnQgU2lnbmluZzBZMBMGByqGSM49AgEGCCqGSM49AwEHA0IABJh6CmvLUBgFFNU0vUKlOVtE6djd17L5SuwX0LemFisBM3dkd/3cyjxFA3Qo5S46fX0/ihY0VZ7mfb9KF703t5OjWDBWMA4GA1UdDwEB/wQEAwIHgDAVBgNVHSUEDjAMBgorBgEEAYPoXgIBMAwGA1UdEwEB/wQCMAAwHwYDVR0jBBgwFoAUzlHiBIFOZFsj+OPEz5o+nMHXXMIwCgYIKoZIzj0EAwMDZwAwZAIwMXMdFJ4BetLLVY7ORuE9noqbbAZOZn/aArXyTwFAZfKrPzxF2vPoJNf1+UCdg1XGAjBwX1zd9WGqYkqmL5SFqw1QySjr1zJfpJM9+1rdDwSPLMOPOjKuiXjoU/pUUeG9RwmhY3BhZFkNngAAAAAAAAAAAAAAAAAAAAAAAAAAAAAAAAAAAAAAAAAAAAAAAAAAAAAAAAAAAAAAAAAAAAAAAAAAAAAAAAAAAAAAAAAAAAAAAAAAAAAAAAAAAAAAAAAAAAAAAAAAAAAAAAAAAAAAAAAAAAAAAAAAAAAAAAAAAAAAAAAAAAAAAAAAAAAAAAAAAAAAAAAAAAAAAAAAAAAAAAAAAAAAAAAAAAAAAAAAAAAAAAAAAAAAAAAAAAAAAAAAAAAAAAAAAAAAAAAAAAAAAAAAAAAAAAAAAAAAAAAAAAAAAAAAAAAAAAAAAAAAAAAAAAAAAAAAAAAAAAAAAAAAAAAAAAAAAAAAAAAAAAAAAAAAAAAAAAAAAAAAAAAAAAAAAAAAAAAAAAAAAAAAAAAAAAAAAAAAAAAAAAAAAAAAAAAAAAAAAAAAAAAAAAAAAAAAAAAAAAAAAAAAAAAAAAAAAAAAAAAAAAAAAAAAAAAAAAAAAAAAAAAAAAAAAAAAAAAAAAAAAAAAAAAAAAAAAAAAAAAAAAAAAAAAAAAAAAAAAAAAAAAAAAAAAAAAAAAAAAAAAAAAAAAAAAAAAAAAAAAAAAAAAAAAAAAAAAAAAAAAAAAAAAAAAAAAAAAAAAAAAAAAAAAAAAAAAAAAAAAAAAAAAAAAAAAAAAAAAAAAAAAAAAAAAAAAAAAAAAAAAAAAAAAAAAAAAAAAAAAAAAAAAAAAAAAAAAAAAAAAAAAAAAAAAAAAAAAAAAAAAAAAAAAAAAAAAAAAAAAAAAAAAAAAAAAAAAAAAAAAAAAAAAAAAAAAAAAAAAAAAAAAAAAAAAAAAAAAAAAAAAAAAAAAAAAAAAAAAAAAAAAAAAAAAAAAAAAAAAAAAAAAAAAAAAAAAAAAAAAAAAAAAAAAAAAAAAAAAAAAAAAAAAAAAAAAAAAAAAAAAAAAAAAAAAAAAAAAAAAAAAAAAAAAAAAAAAAAAAAAAAAAAAAAAAAAAAAAAAAAAAAAAAAAAAAAAAAAAAAAAAAAAAAAAAAAAAAAAAAAAAAAAAAAAAAAAAAAAAAAAAAAAAAAAAAAAAAAAAAAAAAAAAAAAAAAAAAAAAAAAAAAAAAAAAAAAAAAAAAAAAAAAAAAAAAAAAAAAAAAAAAAAAAAAAAAAAAAAAAAAAAAAAAAAAAAAAAAAAAAAAAAAAAAAAAAAAAAAAAAAAAAAAAAAAAAAAAAAAAAAAAAAAAAAAAAAAAAAAAAAAAAAAAAAAAAAAAAAAAAAAAAAAAAAAAAAAAAAAAAAAAAAAAAAAAAAAAAAAAAAAAAAAAAAAAAAAAAAAAAAAAAAAAAAAAAAAAAAAAAAAAAAAAAAAAAAAAAAAAAAAAAAAAAAAAAAAAAAAAAAAAAAAAAAAAAAAAAAAAAAAAAAAAAAAAAAAAAAAAAAAAAAAAAAAAAAAAAAAAAAAAAAAAAAAAAAAAAAAAAAAAAAAAAAAAAAAAAAAAAAAAAAAAAAAAAAAAAAAAAAAAAAAAAAAAAAAAAAAAAAAAAAAAAAAAAAAAAAAAAAAAAAAAAAAAAAAAAAAAAAAAAAAAAAAAAAAAAAAAAAAAAAAAAAAAAAAAAAAAAAAAAAAAAAAAAAAAAAAAAAAAAAAAAAAAAAAAAAAAAAAAAAAAAAAAAAAAAAAAAAAAAAAAAAAAAAAAAAAAAAAAAAAAAAAAAAAAAAAAAAAAAAAAAAAAAAAAAAAAAAAAAAAAAAAAAAAAAAAAAAAAAAAAAAAAAAAAAAAAAAAAAAAAAAAAAAAAAAAAAAAAAAAAAAAAAAAAAAAAAAAAAAAAAAAAAAAAAAAAAAAAAAAAAAAAAAAAAAAAAAAAAAAAAAAAAAAAAAAAAAAAAAAAAAAAAAAAAAAAAAAAAAAAAAAAAAAAAAAAAAAAAAAAAAAAAAAAAAAAAAAAAAAAAAAAAAAAAAAAAAAAAAAAAAAAAAAAAAAAAAAAAAAAAAAAAAAAAAAAAAAAAAAAAAAAAAAAAAAAAAAAAAAAAAAAAAAAAAAAAAAAAAAAAAAAAAAAAAAAAAAAAAAAAAAAAAAAAAAAAAAAAAAAAAAAAAAAAAAAAAAAAAAAAAAAAAAAAAAAAAAAAAAAAAAAAAAAAAAAAAAAAAAAAAAAAAAAAAAAAAAAAAAAAAAAAAAAAAAAAAAAAAAAAAAAAAAAAAAAAAAAAAAAAAAAAAAAAAAAAAAAAAAAAAAAAAAAAAAAAAAAAAAAAAAAAAAAAAAAAAAAAAAAAAAAAAAAAAAAAAAAAAAAAAAAAAAAAAAAAAAAAAAAAAAAAAAAAAAAAAAAAAAAAAAAAAAAAAAAAAAAAAAAAAAAAAAAAAAAAAAAAAAAAAAAAAAAAAAAAAAAAAAAAAAAAAAAAAAAAAAAAAAAAAAAAAAAAAAAAAAAAAAAAAAAAAAAAAAAAAAAAAAAAAAAAAAAAAAAAAAAAAAAAAAAAAAAAAAAAAAAAAAAAAAAAAAAAAAAAAAAAAAAAAAAAAAAAAAAAAAAAAAAAAAAAAAAAAAAAAAAAAAAAAAAAAAAAAAAAAAAAAAAAAAAAAAAAAAAAAAAAAAAAAAAAAAAAAAAAAAAAAAAAAAAAAAAAAAAAAAAAAAAAAAAAAAAAAAAAAAAAAAAAAAAAAAAAAAAAAAAAAAAAAAAAAAAAAAAAAAAAAAAAAAAAAAAAAAAAAAAAAAAAAAAAAAAAAAAAAAAAAAAAAAAAAAAAAAAAAAAAAAAAAAAAAAAAAAAAAAAAAAAAAAAAAAAAAAAAAAAAAAAAAAAAAAAAAAAAAAAAAAAAAAAAAAAAAAAAAAAAAAAAAAAAAAAAAAAAAAAAAAAAAAAAAAAAAAAAAAAAAAAAAAAAAAAAAAAAAAAAAAAAAAAAAAAAAAAAAAAAAAAAAAAAAAAAAAAAAAAAAAAAAAAAAAAAAAAAAAAAAAAAAAAAAAAAAAAAAAAAAAAAAAAAAAAAAAAAAAAAAAAAAAAAAAAAAAAAAAAAAAAAAAAAAAAAAAAAAAAAAAAAAAAAAAAAAAAAAAAAAAAAAAAAAAAAAAAAAAAAAAAAAAAAAAAAAAAAAAAAAAAAAAAAAAAAAAAAAAAAAAAAAAAAAAAAAAAAAAAAAAAAAAAAAAAAAAAAAAAAAAAAAAAAAAAAAAAAAAAAAAAAAAAAAAAAAAAAAAAAAAAAAAAAAAAAAAAAAAAAAAAAAAAAAAAAAAAAAAAAAAAAAAAAAAAAAAAAAAAAAAAAAAAAAAAAAAAAAAAAAAAAAAAAAAAAAAAAAAAAAAAAAAAAAAAAAAAAAAAAAAAAAAAAAAAAAAAAAAAAAAAAAAAAAAAAAAAAAAAAAAAAAAAAAAAAAAAAAAAAAAAAAAAAAAAAAAAAAAAAAAAAAAAAAAAAAAAAAAAAAAAAAAAAAAAAAAAAAAAAAAAAAAAAAAAAAAAAAAAAAAAAAAAAAAAAAAAAAAAAAAAAAAAAAAAAAAAAAAAAAAAAAAAAAAAAAAAAAAAAAAAAAAAAAAAAAAAAAAAAAAAAAAAAAAAAAAAAAAAAAAAAAAAAAAAAAAAAAAAAAAAAAAAAAAAAAAAAAAAAAAAAAAAAAAAAAAAAAAAAAAAAAAAAAAAAAAAAAAAAAAAAAAAAAAAAAAAAAAAAAAAAAAAAAAAAAAAAAAAAAAAAAAAAAAAAAAAAAAAAAAAAAAAAAAAAAAAAAAAAAAAAAAAAAAAAAAAAAAAAAAAAAAAAAAAAAAAAAAAAAAAAAAAAAAAAAAAAAAAAAAAAAAAAAAAAAAAAAAAAAAAAAAAAAAAAAAAAAAAAAAAAAAAAAAAAAAAAAAAAAAAAAAAAAAAAAAAAAAAAAAAAAAAAAAAAAAAAAAAAAAAAAAAAAAAAAAAAAAAAAAAAAAAAAAAAAAAAAAAAAAAAAAAAAAAAAAAAAAAAAAAAAAAAAAAAAAAAAAAAAAAAAAAAAAAAAAAAAAAAAAAAAAAAAAAAAAAAAAAAAAAAAAAAAAAAAAAAAAAAAAAAAAAAAAAAAAAAAAAAAAAAAAAAAAAAAAAAAAAAAAAAAAAAAAAAAAAAAAAAAAAAAAAAAAAAAAAAAAAAAAAAAAAAAAAAAAAAAAAAAAAAAAAAAAAAAAAAAAAAAAAAAAAAAAAAAAAAAAAAAAAAAAAAAAAAAAAAAAAAAAAAAAAAAAAAAAAAAAAAAAAAAAAAAAAAAAAAAAAAAAAAAAAAAAAAAAAAAAAAAAAAAAAAAAAAAAAAAAAAAAAAAAAAAAAAAAAAAAAAAAAAAAAAAAAAAAAAAAAAAAAAAAAAAAAAAAAAAAAAAAAAAAAAAAAAAAAAAAAAAAAAAAAAAAAAAAAAAAAAAAAAAAAAAAAAAAAAAAAAAAAAAAAAAAAAAAAAAAAAAAAAAAAAAAAAAAAAAAAAAAAAAAAAAAAAAAAAAAAAAAAAAAAAAAAAAAAAAAAAAAAAAAAAAAAAAAAAAAAAAAAAAAAAAAAAAAAAAAAAAAAAAAAAAAAAAAAAAAAAAAAAAAAAAAAAAAAAAAAAAAAAAAAAAAAAAAAAAAAAAAAAAAAAAAAAAAAAAAAAAAAAAAAAAAAAAAAAAAAAAAAAAAAAAAAAAAAAAAAAAAAAAAAAAAAAAAAAAAAAAAAAAAAAAAAAAAAAAAAAAAAAAAAAAAAAAAAAAAAAAAAAAAAAAAAAAAAAAAAAAPZYQC081Rzn6U9z4vjL2lBb83QPA14PtMEykUbI2topo93ISGSTqLcBkyHmYZR/1Tfxt9Z7p5jbIaiU8ldGPEX/ip0=</c2pa:manifest></metadata><title>Zeit</title><polygon points="0.00,-10.00 8.66,-5.00 0.00,0.00 -8.66,-5.00" fill="#4A5058" stroke="#0E151E" stroke-width="1.3" stroke-linejoin="round"/><polygon points="8.66,-5.00 17.32,0.00 8.66,5.00 0.00,0.00" fill="#4A5058" stroke="#0E151E" stroke-width="1.3" stroke-linejoin="round"/><polygon points="17.32,0.00 25.98,5.00 17.32,10.00 8.66,5.00" fill="#4A5058" stroke="#0E151E" stroke-width="1.3" stroke-linejoin="round"/><polygon points="25.98,5.00 34.64,10.00 25.98,15.00 17.32,10.00" fill="#4A5058" stroke="#0E151E" stroke-width="1.3" stroke-linejoin="round"/><polygon points="-8.66,-5.00 0.00,0.00 -8.66,5.00 -17.32,0.00" fill="#4A5058" stroke="#0E151E" stroke-width="1.3" stroke-linejoin="round"/><polygon points="0.00,0.00 8.66,5.00 0.00,10.00 -8.66,5.00" fill="#4A5058" stroke="#0E151E" stroke-width="1.3" stroke-linejoin="round"/><polygon points="8.66,5.00 17.32,10.00 8.66,15.00 0.00,10.00" fill="#4A5058" stroke="#0E151E" stroke-width="1.3" stroke-linejoin="round"/><polygon points="17.32,10.00 25.98,15.00 17.32,20.00 8.66,15.00" fill="#4A5058" stroke="#0E151E" stroke-width="1.3" stroke-linejoin="round"/><polygon points="-17.32,0.00 -8.66,5.00 -17.32,10.00 -25.98,5.00" fill="#4A5058" stroke="#0E151E" stroke-width="1.3" stroke-linejoin="round"/><polygon points="-8.66,5.00 0.00,10.00 -8.66,15.00 -17.32,10.00" fill="#4A5058" stroke="#0E151E" stroke-width="1.3" stroke-linejoin="round"/><polygon points="0.00,10.00 8.66,15.00 0.00,20.00 -8.66,15.00" fill="#4A5058" stroke="#0E151E" stroke-width="1.3" stroke-linejoin="round"/><polygon points="8.66,15.00 17.32,20.00 8.66,25.00 0.00,20.00" fill="#4A5058" stroke="#0E151E" stroke-width="1.3" stroke-linejoin="round"/><polygon points="-25.98,5.00 -17.32,10.00 -25.98,15.00 -34.64,10.00" fill="#4A5058" stroke="#0E151E" stroke-width="1.3" stroke-linejoin="round"/><polygon points="-17.32,10.00 -8.66,15.00 -17.32,20.00 -25.98,15.00" fill="#4A5058" stroke="#0E151E" stroke-width="1.3" stroke-linejoin="round"/><polygon points="-8.66,15.00 0.00,20.00 -8.66,25.00 -17.32,20.00" fill="#4A5058" stroke="#0E151E" stroke-width="1.3" stroke-linejoin="round"/><polygon points="0.00,20.00 8.66,25.00 0.00,30.00 -8.66,25.00" fill="#4A5058" stroke="#0E151E" stroke-width="1.3" stroke-linejoin="round"/><polygon points="34.64,10.00 25.98,15.00 25.98,25.00 34.64,20.00" fill="#353B43" stroke="#0E151E" stroke-width="1.3" stroke-linejoin="round"/><polygon points="25.98,15.00 17.32,20.00 17.32,30.00 25.98,25.00" fill="#353B43" stroke="#0E151E" stroke-width="1.3" stroke-linejoin="round"/><polygon points="17.32,20.00 8.66,25.00 8.66,35.00 17.32,30.00" fill="#353B43" stroke="#0E151E" stroke-width="1.3" stroke-linejoin="round"/><polygon points="8.66,25.00 0.00,30.00 0.00,40.00 8.66,35.00" fill="#353B43" stroke="#0E151E" stroke-width="1.3" stroke-linejoin="round"/><polygon points="-34.64,10.00 -25.98,15.00 -25.98,25.00 -34.64,20.00" fill="#E9C200" stroke="#0E151E" stroke-width="1.3" stroke-linejoin="round"/><polygon points="-25.98,15.00 -17.32,20.00 -17.32,30.00 -25.98,25.00" fill="#F89211" stroke="#0E151E" stroke-width="1.3" stroke-linejoin="round"/><polygon points="-17.32,20.00 -8.66,25.00 -8.66,35.00 -17.32,30.00" fill="#F56125" stroke="#0E151E" stroke-width="1.3" stroke-linejoin="round"/><polygon points="-8.66,25.00 0.00,30.00 0.00,40.00 -8.66,35.00" fill="#E0303A" stroke="#0E151E" stroke-width="1.3" stroke-linejoin="round"/><polygon points="0.00,-28.50 8.66,-23.50 0.00,-18.50 -8.66,-23.50" fill="#4A5058" stroke="#0E151E" stroke-width="1.3" stroke-linejoin="round"/><polygon points="8.66,-23.50 17.32,-18.50 8.66,-13.50 0.00,-18.50" fill="#4A5058" stroke="#0E151E" stroke-width="1.3" stroke-linejoin="round"/><polygon points="17.32,-18.50 25.98,-13.50 17.32,-8.50 8.66,-13.50" fill="#4A5058" stroke="#0E151E" stroke-width="1.3" stroke-linejoin="round"/><polygon points="25.98,-13.50 34.64,-8.50 25.98,-3.50 17.32,-8.50" fill="#4A5058" stroke="#0E151E" stroke-width="1.3" stroke-linejoin="round"/><polygon points="-8.66,-23.50 0.00,-18.50 -8.66,-13.50 -17.32,-18.50" fill="#4A5058" stroke="#0E151E" stroke-width="1.3" stroke-linejoin="round"/><polygon points="0.00,-18.50 8.66,-13.50 0.00,-8.50 -8.66,-13.50" fill="#4A5058" stroke="#0E151E" stroke-width="1.3" stroke-linejoin="round"/><polygon points="8.66,-13.50 17.32,-8.50 8.66,-3.50 0.00,-8.50" fill="#4A5058" stroke="#0E151E" stroke-width="1.3" stroke-linejoin="round"/><polygon points="17.32,-8.50 25.98,-3.50 17.32,1.50 8.66,-3.50" fill="#4A5058" stroke="#0E151E" stroke-width="1.3" stroke-linejoin="round"/><polygon points="-17.32,-18.50 -8.66,-13.50 -17.32,-8.50 -25.98,-13.50" fill="#4A5058" stroke="#0E151E" stroke-width="1.3" stroke-linejoin="round"/><polygon points="-8.66,-13.50 0.00,-8.50 -8.66,-3.50 -17.32,-8.50" fill="#4A5058" stroke="#0E151E" stroke-width="1.3" stroke-linejoin="round"/><polygon points="0.00,-8.50 8.66,-3.50 0.00,1.50 -8.66,-3.50" fill="#4A5058" stroke="#0E151E" stroke-width="1.3" stroke-linejoin="round"/><polygon points="8.66,-3.50 17.32,1.50 8.66,6.50 0.00,1.50" fill="#4A5058" stroke="#0E151E" stroke-width="1.3" stroke-linejoin="round"/><polygon points="-25.98,-13.50 -17.32,-8.50 -25.98,-3.50 -34.64,-8.50" fill="#4A5058" stroke="#0E151E" stroke-width="1.3" stroke-linejoin="round"/><polygon points="-17.32,-8.50 -8.66,-3.50 -17.32,1.50 -25.98,-3.50" fill="#4A5058" stroke="#0E151E" stroke-width="1.3" stroke-linejoin="round"/><polygon points="-8.66,-3.50 0.00,1.50 -8.66,6.50 -17.32,1.50" fill="#4A5058" stroke="#0E151E" stroke-width="1.3" stroke-linejoin="round"/><polygon points="0.00,1.50 8.66,6.50 0.00,11.50 -8.66,6.50" fill="#4A5058" stroke="#0E151E" stroke-width="1.3" stroke-linejoin="round"/><polygon points="34.64,-8.50 25.98,-3.50 25.98,6.50 34.64,1.50" fill="#353B43" stroke="#0E151E" stroke-width="1.3" stroke-linejoin="round"/><polygon points="25.98,-3.50 17.32,1.50 17.32,11.50 25.98,6.50" fill="#353B43" stroke="#0E151E" stroke-width="1.3" stroke-linejoin="round"/><polygon points="17.32,1.50 8.66,6.50 8.66,16.50 17.32,11.50" fill="#353B43" stroke="#0E151E" stroke-width="1.3" stroke-linejoin="round"/><polygon points="8.66,6.50 0.00,11.50 0.00,21.50 8.66,16.50" fill="#353B43" stroke="#0E151E" stroke-width="1.3" stroke-linejoin="round"/><polygon points="-34.64,-8.50 -25.98,-3.50 -25.98,6.50 -34.64,1.50" fill="#1F262F" stroke="#0E151E" stroke-width="1.3" stroke-linejoin="round"/><polygon points="-25.98,-3.50 -17.32,1.50 -17.32,11.50 -25.98,6.50" fill="#62B847" stroke="#0E151E" stroke-width="1.3" stroke-linejoin="round"/><polygon points="-17.32,1.50 -8.66,6.50 -8.66,16.50 -17.32,11.50" fill="#1F262F" stroke="#0E151E" stroke-width="1.3" stroke-linejoin="round"/><polygon points="-8.66,6.50 0.00,11.50 0.00,21.50 -8.66,16.50" fill="#1F262F" stroke="#0E151E" stroke-width="1.3" stroke-linejoin="round"/><polygon points="0.00,-47.00 8.66,-42.00 0.00,-37.00 -8.66,-42.00" fill="#4A5058" stroke="#0E151E" stroke-width="1.3" stroke-linejoin="round"/><polygon points="8.66,-42.00 17.32,-37.00 8.66,-32.00 0.00,-37.00" fill="#4A5058" stroke="#0E151E" stroke-width="1.3" stroke-linejoin="round"/><polygon points="17.32,-37.00 25.98,-32.00 17.32,-27.00 8.66,-32.00" fill="#4A5058" stroke="#0E151E" stroke-width="1.3" stroke-linejoin="round"/><polygon points="25.98,-32.00 34.64,-27.00 25.98,-22.00 17.32,-27.00" fill="#4A5058" stroke="#0E151E" stroke-width="1.3" stroke-linejoin="round"/><polygon points="-8.66,-42.00 0.00,-37.00 -8.66,-32.00 -17.32,-37.00" fill="#4A5058" stroke="#0E151E" stroke-width="1.3" stroke-linejoin="round"/><polygon points="0.00,-37.00 8.66,-32.00 0.00,-27.00 -8.66,-32.00" fill="#4A5058" stroke="#0E151E" stroke-width="1.3" stroke-linejoin="round"/><polygon points="8.66,-32.00 17.32,-27.00 8.66,-22.00 0.00,-27.00" fill="#4A5058" stroke="#0E151E" stroke-width="1.3" stroke-linejoin="round"/><polygon points="17.32,-27.00 25.98,-22.00 17.32,-17.00 8.66,-22.00" fill="#4A5058" stroke="#0E151E" stroke-width="1.3" stroke-linejoin="round"/><polygon points="-17.32,-37.00 -8.66,-32.00 -17.32,-27.00 -25.98,-32.00" fill="#4A5058" stroke="#0E151E" stroke-width="1.3" stroke-linejoin="round"/><polygon points="-8.66,-32.00 0.00,-27.00 -8.66,-22.00 -17.32,-27.00" fill="#4A5058" stroke="#0E151E" stroke-width="1.3" stroke-linejoin="round"/><polygon points="0.00,-27.00 8.66,-22.00 0.00,-17.00 -8.66,-22.00" fill="#4A5058" stroke="#0E151E" stroke-width="1.3" stroke-linejoin="round"/><polygon points="8.66,-22.00 17.32,-17.00 8.66,-12.00 0.00,-17.00" fill="#4A5058" stroke="#0E151E" stroke-width="1.3" stroke-linejoin="round"/><polygon points="-25.98,-32.00 -17.32,-27.00 -25.98,-22.00 -34.64,-27.00" fill="#4A5058" stroke="#0E151E" stroke-width="1.3" stroke-linejoin="round"/><polygon points="-17.32,-27.00 -8.66,-22.00 -17.32,-17.00 -25.98,-22.00" fill="#4A5058" stroke="#0E151E" stroke-width="1.3" stroke-linejoin="round"/><polygon points="-8.66,-22.00 0.00,-17.00 -8.66,-12.00 -17.32,-17.00" fill="#4A5058" stroke="#0E151E" stroke-width="1.3" stroke-linejoin="round"/><polygon points="0.00,-17.00 8.66,-12.00 0.00,-7.00 -8.66,-12.00" fill="#4A5058" stroke="#0E151E" stroke-width="1.3" stroke-linejoin="round"/><polygon points="34.64,-27.00 25.98,-22.00 25.98,-12.00 34.64,-17.00" fill="#353B43" stroke="#0E151E" stroke-width="1.3" stroke-linejoin="round"/><polygon points="25.98,-22.00 17.32,-17.00 17.32,-7.00 25.98,-12.00" fill="#353B43" stroke="#0E151E" stroke-width="1.3" stroke-linejoin="round"/><polygon points="17.32,-17.00 8.66,-12.00 8.66,-2.00 17.32,-7.00" fill="#353B43" stroke="#0E151E" stroke-width="1.3" stroke-linejoin="round"/><polygon points="8.66,-12.00 0.00,-7.00 0.00,3.00 8.66,-2.00" fill="#353B43" stroke="#0E151E" stroke-width="1.3" stroke-linejoin="round"/><polygon points="-34.64,-27.00 -25.98,-22.00 -25.98,-12.00 -34.64,-17.00" fill="#1F262F" stroke="#0E151E" stroke-width="1.3" stroke-linejoin="round"/><polygon points="-25.98,-22.00 -17.32,-17.00 -17.32,-7.00 -25.98,-12.00" fill="#1F262F" stroke="#0E151E" stroke-width="1.3" stroke-linejoin="round"/><polygon points="-17.32,-17.00 -8.66,-12.00 -8.66,-2.00 -17.32,-7.00" fill="#15B08F" stroke="#0E151E" stroke-width="1.3" stroke-linejoin="round"/><polygon points="-8.66,-12.00 0.00,-7.00 0.00,3.00 -8.66,-2.00" fill="#1F262F" stroke="#0E151E" stroke-width="1.3" stroke-linejoin="round"/><polygon points="0.00,-65.50 8.66,-60.50 0.00,-55.50 -8.66,-60.50" fill="#4A5058" stroke="#0E151E" stroke-width="1.3" stroke-linejoin="round"/><polygon points="8.66,-60.50 17.32,-55.50 8.66,-50.50 0.00,-55.50" fill="#4A5058" stroke="#0E151E" stroke-width="1.3" stroke-linejoin="round"/><polygon points="17.32,-55.50 25.98,-50.50 17.32,-45.50 8.66,-50.50" fill="#4A5058" stroke="#0E151E" stroke-width="1.3" stroke-linejoin="round"/><polygon points="25.98,-50.50 34.64,-45.50 25.98,-40.50 17.32,-45.50" fill="#4A5058" stroke="#0E151E" stroke-width="1.3" stroke-linejoin="round"/><polygon points="-8.66,-60.50 0.00,-55.50 -8.66,-50.50 -17.32,-55.50" fill="#4A5058" stroke="#0E151E" stroke-width="1.3" stroke-linejoin="round"/><polygon points="0.00,-55.50 8.66,-50.50 0.00,-45.50 -8.66,-50.50" fill="#4A5058" stroke="#0E151E" stroke-width="1.3" stroke-linejoin="round"/><polygon points="8.66,-50.50 17.32,-45.50 8.66,-40.50 0.00,-45.50" fill="#4A5058" stroke="#0E151E" stroke-width="1.3" stroke-linejoin="round"/><polygon points="17.32,-45.50 25.98,-40.50 17.32,-35.50 8.66,-40.50" fill="#4A5058" stroke="#0E151E" stroke-width="1.3" stroke-linejoin="round"/><polygon points="-17.32,-55.50 -8.66,-50.50 -17.32,-45.50 -25.98,-50.50" fill="#4A5058" stroke="#0E151E" stroke-width="1.3" stroke-linejoin="round"/><polygon points="-8.66,-50.50 0.00,-45.50 -8.66,-40.50 -17.32,-45.50" fill="#4A5058" stroke="#0E151E" stroke-width="1.3" stroke-linejoin="round"/><polygon points="0.00,-45.50 8.66,-40.50 0.00,-35.50 -8.66,-40.50" fill="#4A5058" stroke="#0E151E" stroke-width="1.3" stroke-linejoin="round"/><polygon points="8.66,-40.50 17.32,-35.50 8.66,-30.50 0.00,-35.50" fill="#4A5058" stroke="#0E151E" stroke-width="1.3" stroke-linejoin="round"/><polygon points="-25.98,-50.50 -17.32,-45.50 -25.98,-40.50 -34.64,-45.50" fill="#4A5058" stroke="#0E151E" stroke-width="1.3" stroke-linejoin="round"/><polygon points="-17.32,-45.50 -8.66,-40.50 -17.32,-35.50 -25.98,-40.50" fill="#4A5058" stroke="#0E151E" stroke-width="1.3" stroke-linejoin="round"/><polygon points="-8.66,-40.50 0.00,-35.50 -8.66,-30.50 -17.32,-35.50" fill="#4A5058" stroke="#0E151E" stroke-width="1.3" stroke-linejoin="round"/><polygon points="0.00,-35.50 8.66,-30.50 0.00,-25.50 -8.66,-30.50" fill="#4A5058" stroke="#0E151E" stroke-width="1.3" stroke-linejoin="round"/><polygon points="34.64,-45.50 25.98,-40.50 25.98,-30.50 34.64,-35.50" fill="#353B43" stroke="#0E151E" stroke-width="1.3" stroke-linejoin="round"/><polygon points="25.98,-40.50 17.32,-35.50 17.32,-25.50 25.98,-30.50" fill="#353B43" stroke="#0E151E" stroke-width="1.3" stroke-linejoin="round"/><polygon points="17.32,-35.50 8.66,-30.50 8.66,-20.50 17.32,-25.50" fill="#353B43" stroke="#0E151E" stroke-width="1.3" stroke-linejoin="round"/><polygon points="8.66,-30.50 0.00,-25.50 0.00,-15.50 8.66,-20.50" fill="#353B43" stroke="#0E151E" stroke-width="1.3" stroke-linejoin="round"/><polygon points="-34.64,-45.50 -25.98,-40.50 -25.98,-30.50 -34.64,-35.50" fill="#6D3FE0" stroke="#0E151E" stroke-width="1.3" stroke-linejoin="round"/><polygon points="-25.98,-40.50 -17.32,-35.50 -17.32,-25.50 -25.98,-30.50" fill="#445CF5" stroke="#0E151E" stroke-width="1.3" stroke-linejoin="round"/><polygon points="-17.32,-35.50 -8.66,-30.50 -8.66,-20.50 -17.32,-25.50" fill="#1F80F1" stroke="#0E151E" stroke-width="1.3" stroke-linejoin="round"/><polygon points="-8.66,-30.50 0.00,-25.50 0.00,-15.50 -8.66,-20.50" fill="#00A9D6" stroke="#0E151E" stroke-width="1.3" stroke-linejoin="round"/></svg>
